<svg viewBox="0 0 400 300" xmlns="http://www.w3.org/2000/svg" fill="none">
  <g stroke="#ebe8e1" stroke-width="1.6">
    <rect x="30" y="40" width="340" height="220"/>
    <line x1="30" y1="68" x2="370" y2="68"/>
    <line x1="80" y1="68" x2="80" y2="260"/>
  </g>
  <g fill="#ebe8e1" stroke="none" opacity="0.65">
    <circle cx="48" cy="54" r="3.6"/>
    <circle cx="62" cy="54" r="3.6"/>
    <circle cx="76" cy="54" r="3.6"/>
  </g>
  <g stroke="#ebe8e1" stroke-width="1.3" opacity="0.55" stroke-linecap="round">
    <line x1="50" y1="92" x2="70" y2="92"/>
    <line x1="50" y1="108" x2="68" y2="108"/>
    <line x1="50" y1="124" x2="72" y2="124"/>
    <line x1="50" y1="140" x2="66" y2="140"/>
    <line x1="50" y1="156" x2="70" y2="156"/>
    <line x1="50" y1="172" x2="64" y2="172"/>
  </g>
  <g stroke="#ebe8e1" stroke-width="1.5" stroke-linecap="round">
    <line x1="100" y1="92" x2="240" y2="92" opacity="0.85"/>
    <line x1="120" y1="110" x2="280" y2="110" opacity="0.85"/>
    <line x1="120" y1="128" x2="220" y2="128" opacity="0.85"/>
    <line x1="140" y1="146" x2="320" y2="146" stroke="#7a1c2c"/>
    <line x1="140" y1="164" x2="260" y2="164" opacity="0.85"/>
    <line x1="120" y1="182" x2="240" y2="182" opacity="0.85"/>
    <line x1="100" y1="200" x2="200" y2="200" opacity="0.85"/>
    <line x1="120" y1="218" x2="290" y2="218" opacity="0.85"/>
    <line x1="120" y1="236" x2="220" y2="236" opacity="0.85"/>
  </g>
</svg>
