<svg viewBox="0 0 400 300" xmlns="http://www.w3.org/2000/svg" fill="none">
  <g stroke="#ebe8e1" stroke-width="1.8">
    <line x1="180" y1="90" x2="232" y2="120"/>
    <line x1="232" y1="120" x2="232" y2="180"/>
    <line x1="232" y1="180" x2="180" y2="210"/>
    <line x1="180" y1="210" x2="128" y2="180"/>
    <line x1="128" y1="180" x2="128" y2="120"/>
    <line x1="128" y1="120" x2="180" y2="90"/>
  </g>
  <g stroke="#ebe8e1" stroke-width="1.3" opacity="0.7">
    <line x1="186" y1="98" x2="224" y2="120"/>
    <line x1="224" y1="178" x2="186" y2="200"/>
    <line x1="134" y1="120" x2="134" y2="178"/>
  </g>
  <line x1="232" y1="120" x2="278" y2="92" stroke="#ebe8e1" stroke-width="1.8"/>
  <line x1="128" y1="180" x2="82" y2="208" stroke="#ebe8e1" stroke-width="1.8"/>
  <line x1="180" y1="210" x2="180" y2="260" stroke="#ebe8e1" stroke-width="1.8" opacity="0.85"/>
  <g fill="#0c0c0d" stroke="#ebe8e1" stroke-width="1.6">
    <circle cx="278" cy="92" r="10"/>
    <circle cx="82" cy="208" r="10"/>
    <circle cx="180" cy="260" r="10"/>
  </g>
  <circle cx="232" cy="120" r="8" fill="#7a1c2c"/>
  <g fill="#ebe8e1" font-family="ui-monospace, monospace" font-size="11" text-anchor="middle">
    <text x="278" y="96">N</text>
    <text x="82" y="212">O</text>
    <text x="180" y="264">H</text>
  </g>
</svg>
