<svg viewBox="0 0 400 300" xmlns="http://www.w3.org/2000/svg" fill="none">
  <g stroke="#ebe8e1" stroke-width="2" stroke-linecap="round" opacity="0.82">
    <line x1="40" y1="147" x2="40" y2="153"/>
    <line x1="50" y1="142" x2="50" y2="158"/>
    <line x1="60" y1="135" x2="60" y2="165"/>
    <line x1="70" y1="125" x2="70" y2="175"/>
    <line x1="80" y1="113" x2="80" y2="187"/>
    <line x1="90" y1="102" x2="90" y2="198"/>
    <line x1="100" y1="98" x2="100" y2="202"/>
    <line x1="110" y1="106" x2="110" y2="194"/>
    <line x1="120" y1="120" x2="120" y2="180"/>
    <line x1="130" y1="132" x2="130" y2="168"/>
    <line x1="140" y1="139" x2="140" y2="161"/>
    <line x1="150" y1="142" x2="150" y2="158"/>
    <line x1="160" y1="137" x2="160" y2="163"/>
    <line x1="170" y1="126" x2="170" y2="174"/>
    <line x1="180" y1="112" x2="180" y2="188"/>
    <line x1="190" y1="99" x2="190" y2="201"/>
    <line x1="200" y1="86" x2="200" y2="214"/>
  </g>
  <line x1="210" y1="74" x2="210" y2="226" stroke="#7a1c2c" stroke-width="2.5" stroke-linecap="round"/>
  <g stroke="#ebe8e1" stroke-width="2" stroke-linecap="round" opacity="0.82">
    <line x1="220" y1="80" x2="220" y2="220"/>
    <line x1="230" y1="94" x2="230" y2="206"/>
    <line x1="240" y1="108" x2="240" y2="192"/>
    <line x1="250" y1="121" x2="250" y2="179"/>
    <line x1="260" y1="130" x2="260" y2="170"/>
    <line x1="270" y1="136" x2="270" y2="164"/>
    <line x1="280" y1="140" x2="280" y2="160"/>
    <line x1="290" y1="143" x2="290" y2="157"/>
    <line x1="300" y1="144" x2="300" y2="156"/>
    <line x1="310" y1="145" x2="310" y2="155"/>
    <line x1="320" y1="147" x2="320" y2="153"/>
    <line x1="330" y1="147" x2="330" y2="153"/>
    <line x1="340" y1="148" x2="340" y2="152"/>
    <line x1="350" y1="148" x2="350" y2="152"/>
    <line x1="360" y1="149" x2="360" y2="151"/>
  </g>
</svg>
