<svg viewBox="0 0 400 300" xmlns="http://www.w3.org/2000/svg" fill="none">
  <g stroke="#ebe8e1">
    <circle cx="200" cy="150" r="120" stroke-width="2"/>
    <circle cx="200" cy="150" r="90" stroke-width="1.2" opacity="0.55"/>
    <circle cx="200" cy="150" r="78" stroke-width="2"/>
    <circle cx="200" cy="150" r="50" stroke-width="1.4" opacity="0.85"/>
    <circle cx="200" cy="150" r="38" stroke-width="1" opacity="0.4"/>
    <g stroke-width="1.6">
      <line x1="200" y1="150" x2="200" y2="78"/>
      <line x1="200" y1="150" x2="274.2" y2="125.9"/>
      <line x1="200" y1="150" x2="245.8" y2="213.1"/>
      <line x1="200" y1="150" x2="154.2" y2="213.1"/>
      <line x1="200" y1="150" x2="125.8" y2="125.9"/>
    </g>
    <g stroke-width="1" opacity="0.5">
      <line x1="200" y1="22" x2="200" y2="32"/>
      <line x1="278" y1="60" x2="271" y2="68"/>
      <line x1="328" y1="150" x2="318" y2="150"/>
      <line x1="278" y1="240" x2="271" y2="232"/>
      <line x1="200" y1="278" x2="200" y2="268"/>
      <line x1="122" y1="240" x2="129" y2="232"/>
      <line x1="72" y1="150" x2="82" y2="150"/>
      <line x1="122" y1="60" x2="129" y2="68"/>
    </g>
  </g>
  <circle cx="200" cy="150" r="7" fill="#7a1c2c"/>
</svg>
