<svg viewBox="0 0 400 300" xmlns="http://www.w3.org/2000/svg" fill="none">
  <g stroke="#ebe8e1" stroke-width="0.6" opacity="0.18">
    <line x1="0" y1="50" x2="400" y2="50"/>
    <line x1="0" y1="100" x2="400" y2="100"/>
    <line x1="0" y1="150" x2="400" y2="150"/>
    <line x1="0" y1="200" x2="400" y2="200"/>
    <line x1="0" y1="250" x2="400" y2="250"/>
    <line x1="50" y1="0" x2="50" y2="300"/>
    <line x1="100" y1="0" x2="100" y2="300"/>
    <line x1="150" y1="0" x2="150" y2="300"/>
    <line x1="200" y1="0" x2="200" y2="300"/>
    <line x1="250" y1="0" x2="250" y2="300"/>
    <line x1="300" y1="0" x2="300" y2="300"/>
    <line x1="350" y1="0" x2="350" y2="300"/>
  </g>
  <path d="M 20 150 L 70 150 L 82 138 L 96 150 L 110 150 L 116 162 L 124 80 L 132 220 L 140 150 L 154 150 L 172 134 L 188 150 L 220 150 L 232 138 L 246 150 L 260 150 L 266 162 L 274 80 L 282 220 L 290 150 L 304 150 L 322 134 L 338 150 L 380 150"
    stroke="#7a1c2c" stroke-width="2" stroke-linejoin="round" stroke-linecap="round"/>
</svg>
